<svg version="1.1" xmlns="http://www.w3.org/2000/svg" xmlns:xlink="http://www.w3.org/1999/xlink" viewBox="0 0 108.5 108.5" xml:space="preserve">
  <path style="fill: #ED4D05;" d="M100.2,32.1c-2.1,0-4.3-0.8-5.9-2.4L78.9,14.3c-3.2-3.2-3.2-8.5,0-11.8c3.2-3.2,8.5-3.2,11.8,0l15.4,15.4 c3.2,3.2,3.2,8.5,0,11.8C104.4,31.3,102.3,32.1,100.2,32.1 M47.8,94.4c-2.1,0-4.3-0.8-5.9-2.4L16.6,66.6c-3.2-3.3-3.2-8.5,0-11.8 c3.2-3.2,8.5-3.2,11.8,0l25.4,25.4c3.2,3.2,3.2,8.5,0,11.8C52.1,93.6,50,94.4,47.8,94.4 M100.2,70.3c-2.1,0-4.3-0.8-5.9-2.4 L40.6,14.2c-3.2-3.2-3.2-8.5,0-11.8c3.3-3.2,8.5-3.2,11.8,0l53.7,53.7c3.2,3.2,3.2,8.5,0,11.8C104.5,69.5,102.3,70.3,100.2,70.3  M100.2,108.5c-2.1,0-4.3-0.8-5.9-2.4L2.4,14.2c-3.2-3.2-3.2-8.5,0-11.8c3.3-3.2,8.5-3.2,11.8,0l91.9,91.9c3.2,3.2,3.2,8.5,0,11.8 C104.4,107.7,102.3,108.5,100.2,108.5"/>
</svg>
