<svg version="1.1" xmlns="http://www.w3.org/2000/svg" xmlns:xlink="http://www.w3.org/1999/xlink" viewBox="0 0 1200 260" xml:space="preserve">
	<path style="fill: #ED4C06;" d="M245.9,76.9c-5.1,0-10.2-1.9-14.1-5.8l-37-37c-7.8-7.8-7.8-20.4,0-28.2c7.8-7.8,20.4-7.8,28.2,0l37,37 c7.8,7.8,7.8,20.4,0,28.2C256.1,74.9,251,76.9,245.9,76.9z M134.6,220.3c7.8-7.8,7.8-20.4,0-28.2l-60.9-60.9 c-7.8-7.8-20.4-7.8-28.2,0c-7.8,7.8-7.8,20.4,0,28.2l60.9,60.9c3.9,3.9,9,5.8,14.1,5.8S130.7,224.2,134.6,220.3z M260,162.6 c7.8-7.8,7.8-20.4,0-28.2L131.5,5.8c-7.8-7.8-20.4-7.8-28.2,0c-7.8,7.8-7.8,20.4,0,28.2l128.6,128.6c3.9,3.9,9,5.8,14.1,5.8 C251,168.5,256.1,166.5,260,162.6z M260,254.2c7.8-7.8,7.8-20.4,0-28.2L39.9,5.9c-7.8-7.8-20.4-7.8-28.2,0c-7.8,7.8-7.8,20.4,0,28.2 l220.1,220.1c3.9,3.9,9,5.8,14.1,5.8C251,260,256.1,258.1,260,254.2z"/>
	<path style="fill: #ED4C06;" d="M448.5,225.8c-52.8,0-95.8-43-95.8-95.8s43-95.8,95.8-95.8s95.8,43,95.8,95.8S501.4,225.8,448.5,225.8z M448.5,74 c-30.9,0-56,25.1-56,56c0,30.9,25.1,56,56,56s56-25.1,56-56C504.5,99.1,479.4,74,448.5,74z M976.6,218.4V44.1c0-4.1-3.3-7.4-7.4-7.4 h-25c-4.1,0-7.4,3.3-7.4,7.4v174.3c0,4.1,3.3,7.4,7.4,7.4h25C973.3,225.8,976.6,222.5,976.6,218.4z M896.7,36.7H757.9 c-4.1,0-7.4,3.3-7.4,7.4v25c0,4.1,3.3,7.4,7.4,7.4h49.5v141.8c0,4.1,3.3,7.4,7.4,7.4h25c4.1,0,7.4-3.3,7.4-7.4V76.6h49.5 c4.1,0,7.4-3.3,7.4-7.4v-25C904.2,40,900.8,36.7,896.7,36.7z M725.1,201c3.2-2.9,3.1-7.9,0-10.8l-17.6-16.5c-3.2-3-8.1-3.1-11.4-0.3 c-9.9,8.1-22.2,12.5-35.3,12.5c-32.3,0-58.4-27.6-55.8-60.4c2.3-29,27.2-51.7,56.3-51.5c12.9,0.1,25,4.5,34.8,12.5 c3.4,2.7,8.2,2.6,11.4-0.4l17.5-16.5c3.2-3,3.1-8.1-0.2-11c-17.5-15.7-40.4-24.5-64-24.5c-52.8,0-95.8,43-95.8,95.8 s43,95.8,95.8,95.8C684.6,225.8,707.6,216.9,725.1,201z M1152.7,41.2l-51.3,120.5l-51-120.5c-1.2-2.7-3.9-4.5-6.8-4.5h-27.2 c-5.3,0-8.9,5.4-6.8,10.3l73.7,174.3c1.2,2.7,3.9,4.5,6.8,4.5h22.6c3,0,5.7-1.8,6.8-4.5l74-174.3c2.1-4.9-1.5-10.3-6.8-10.3h-27.2 C1156.5,36.7,1153.8,38.5,1152.7,41.2z"/>
</svg>
