<svg version="1.1" xmlns="http://www.w3.org/2000/svg" xmlns:xlink="http://www.w3.org/1999/xlink" viewBox="0 0 205.5 167.4" xml:space="preserve">
	<path style="fill: #ED4D05;" d="M148.7,32.1c-2.1,0-4.3-0.8-5.9-2.4l-15.4-15.4c-3.2-3.2-3.2-8.5,0-11.8c3.2-3.2,8.5-3.2,11.8,0l15.4,15.4 c3.2,3.2,3.2,8.5,0,11.8C152.9,31.3,150.8,32.1,148.7,32.1 M96.3,94.4c-2.1,0-4.3-0.8-5.9-2.4L65.1,66.6c-3.2-3.3-3.2-8.5,0-11.8 c3.2-3.2,8.5-3.2,11.8,0l25.4,25.4c3.2,3.2,3.2,8.5,0,11.8C100.6,93.6,98.5,94.4,96.3,94.4 M148.7,70.3c-2.1,0-4.3-0.8-5.9-2.4 L89.1,14.2c-3.2-3.2-3.2-8.5,0-11.8c3.3-3.2,8.5-3.2,11.8,0l53.7,53.7c3.2,3.2,3.2,8.5,0,11.8C153,69.5,150.8,70.3,148.7,70.3  M148.7,108.5c-2.1,0-4.3-0.8-5.9-2.4L50.9,14.2c-3.2-3.2-3.2-8.5,0-11.8c3.3-3.2,8.5-3.2,11.8,0l91.9,91.9c3.2,3.2,3.2,8.5,0,11.8 C152.9,107.7,150.8,108.5,148.7,108.5"/>
	<path d="M23.4,130.4c-7.5,0-13.7,6.1-13.7,13.7c0,7.5,6.1,13.7,13.7,13.7c7.5,0,13.7-6.1,13.7-13.7S30.9,130.4,23.4,130.4  M23.4,167.4C10.5,167.4,0,156.9,0,144s10.5-23.4,23.4-23.4s23.4,10.5,23.4,23.4S36.3,167.4,23.4,167.4 M150.6,167.4h-6.1 c-1,0-1.8-0.8-1.8-1.8V123c0-1,0.8-1.8,1.8-1.8h6.1c1,0,1.8,0.8,1.8,1.8v42.6C152.4,166.6,151.6,167.4,150.6,167.4 M132.9,121.2H99 c-1,0-1.8,0.8-1.8,1.8v6.1c0,1,0.8,1.8,1.8,1.8h12v34.6c0,1,0.8,1.8,1.8,1.8h6.1c1,0,1.8-0.8,1.8-1.8V131h12.1c1,0,1.8-0.8,1.8-1.8 V123C134.7,122,133.9,121.2,132.9,121.2 M75.2,167.4c-12.9,0-23.4-10.5-23.4-23.4s10.5-23.4,23.4-23.4c5.8,0,11.4,2.2,15.6,6 c0.8,0.7,0.8,2,0.1,2.7l-4.3,4c-0.8,0.7-2,0.8-2.8,0.1c-2.4-2-5.3-3-8.5-3.1c-7.1-0.1-13.2,5.5-13.8,12.6c-0.6,8,5.7,14.8,13.6,14.8 c3.2,0,6.2-1.1,8.6-3.1c0.8-0.7,2-0.6,2.8,0.1l4.3,4c0.8,0.7,0.8,1.9,0,2.6C86.7,165.2,81,167.4,75.2,167.4 M195.4,122.3l-12.5,29.4 l-12.5-29.4c-0.3-0.7-0.9-1.1-1.7-1.1h-6.6c-1.3,0-2.2,1.3-1.7,2.5l18,42.6c0.3,0.7,0.9,1.1,1.7,1.1h5.5c0.7,0,1.4-0.4,1.7-1.1 l18.1-42.6c0.5-1.2-0.4-2.5-1.7-2.5h-6.6C196.3,121.2,195.7,121.7,195.4,122.3"/>
</svg>